# This file uses centimeters as units for non-parametric coordinates.

mtllib Doorway Textured.mtl
g default
v -7.620000 -0.000004 76.199999
v 7.620000 -0.000004 76.199999
v -7.620000 304.799992 76.199999
v 7.620000 304.799992 76.199999
v -7.620000 304.799992 -76.199999
v 7.620000 304.799992 -76.199999
v -7.620000 -0.000004 -76.199999
v 7.620000 -0.000004 -76.199999
v 7.620000 7.619987 76.199999
v -7.620000 7.619987 76.199999
v -7.620000 7.619987 -76.199999
v 7.620000 7.619987 -76.199999
v 8.255000 -0.000004 -76.199999
v 8.255000 -0.000004 76.199999
v -7.620000 -0.000004 -76.199999
v -7.620000 -0.000004 76.199999
v -7.620000 7.619987 76.199999
v -7.620000 7.619987 -76.199999
v -8.255000 -0.000004 -76.199999
v -8.255000 -0.000004 76.199999
v 8.162016 7.527004 -76.199999
v 8.255000 7.302519 -76.199999
v 7.937532 7.619987 -76.199999
v 8.255000 7.302519 76.199999
v 8.162016 7.527004 76.199999
v 7.937532 7.619987 76.199999
v -8.162016 7.527004 76.199999
v -8.255000 7.302519 76.199999
v -7.937532 7.619987 76.199999
v -8.255000 7.302519 -76.199999
v -8.162016 7.527004 -76.199999
v -7.937532 7.619987 -76.199999
v 7.620000 304.799992 -60.960002
v -7.620000 304.799992 -60.960002
v -7.620000 7.619987 -60.960002
v -7.620000 7.619987 -60.960002
v -7.937531 7.619987 -60.960002
v -8.162016 7.527004 -60.960002
v -8.255000 7.302519 -60.960002
v -8.255000 -0.000004 -60.960002
v -7.620000 -0.000004 -60.960002
v -7.620000 -0.000004 -60.960002
v 7.620000 -0.000004 -60.960002
v 8.255000 -0.000004 -60.960002
v 8.255000 7.302519 -60.960002
v 8.162016 7.527004 -60.960002
v 7.937531 7.619987 -60.960002
v 7.620000 7.619987 -60.960002
v 7.620000 304.799992 55.879998
v -7.620000 304.799992 55.879998
v -7.620000 7.619987 55.879998
v -7.620000 7.619987 55.879998
v -7.937531 7.619987 55.879998
v -8.162016 7.527004 55.879998
v -8.255000 7.302519 55.879998
v -8.255000 -0.000004 55.879998
v -7.620000 -0.000004 55.879998
v -7.620000 -0.000004 55.879998
v 7.620000 -0.000004 55.879998
v 8.255000 -0.000004 55.879998
v 8.255000 7.302519 55.879998
v 8.162016 7.527004 55.879998
v 7.937531 7.619987 55.879998
v 7.620000 7.619987 55.879998
v 7.620000 243.840004 76.199999
v -7.620000 243.840004 76.199999
v -7.620000 243.840004 55.879993
v -7.620000 243.840004 -60.960002
v -7.620000 243.840004 -76.199999
v 7.620000 243.840004 -76.199999
v 7.620000 243.840004 -60.960002
v 7.620000 243.840004 55.879993
v -8.255000 7.302519 -60.960002
v -7.620000 7.619987 -60.960002
v 7.620000 7.619987 -60.960002
v 8.255000 7.302519 -60.960002
v 7.937531 7.619987 -60.960002
v 8.162016 7.527004 -60.960002
v -7.620000 243.840004 -60.960002
v 7.620000 243.840004 -60.960002
v -8.255000 7.302519 55.879998
v -7.620000 7.619987 55.879998
v -8.162016 7.527004 55.879998
v -7.937531 7.619987 55.879998
v 7.620000 7.619987 55.879998
v 8.255000 7.302519 55.879998
v 7.937531 7.619987 55.879998
v 8.162016 7.527004 55.879993
vt 0.375000 -0.646947
vt 0.375000 -0.602245
vt 0.419702 -0.602245
vt 0.375000 -0.557543
vt 0.419702 -0.557543
vt 0.375000 -0.512841
vt 0.419702 -0.512841
vt 0.375000 -0.468139
vt 0.419702 -0.468139
vt 0.487073 0.133211
vt 0.535978 0.133211
vt 0.330298 -0.646947
vt 0.412425 0.133211
vt 0.375000 -0.645830
vt 0.330298 -0.645830
vt 0.375000 -0.513959
vt 0.419702 -0.513959
vt 0.375000 -0.646947
vt 0.535978 0.150786
vt 0.419702 -0.645830
vt 0.461331 0.133211
vt 0.330298 -0.645830
vt 0.487073 0.150786
vt 0.487073 0.151550
vt 0.461331 0.150786
vt 0.412425 0.150786
vt 0.535978 0.151550
vt 0.535978 0.720074
vt 0.419702 -0.646947
vt 0.487073 0.720074
vt 0.487073 0.133211
vt 0.375000 -0.645830
vt 0.412425 0.151550
vt 0.330298 -0.646947
vt 0.461331 0.151550
vt 0.461331 0.720074
vt 0.535978 0.133211
vt 0.487073 0.151550
vt 0.412425 0.720074
vt 0.412425 0.133211
vt 0.419702 -0.572444
vt 0.535978 0.151550
vt 0.461331 0.133211
vt 0.375000 -0.572444
vt 0.345199 -0.645830
vt 0.345199 -0.645830
vt 0.461331 0.151550
vt 0.412425 0.151550
vt 0.412425 0.151550
vt 0.461331 0.151550
vt 0.345199 -0.646947
vt 0.345199 -0.646947
vt 0.375000 -0.497940
vt 0.419702 -0.497940
vt 0.535978 0.151326
vt 0.487073 0.151326
vt 0.853862 0.151326
vt 0.853862 0.150786
vt 0.853862 0.133211
vt 0.853862 0.133211
vt 0.419702 -0.587344
vt 0.853862 0.151550
vt 0.461331 0.151326
vt 0.375000 -0.587344
vt 0.360099 -0.645830
vt 0.360099 -0.645830
vt 0.412425 0.151326
vt 0.094541 0.151550
vt 0.094541 0.133211
vt 0.094541 0.133211
vt 0.360099 -0.646947
vt 0.360099 -0.646947
vt 0.375000 -0.483040
vt 0.419702 -0.483040
vt 0.853862 0.151550
vt 0.817183 0.133211
vt 0.817183 0.133211
vt 0.817183 0.150786
vt 0.817183 0.151326
vt 0.817183 0.151550
vt 0.419702 -0.613055
vt 0.375000 -0.613055
vt 0.094541 0.150786
vt 0.094541 0.151326
vt 0.094541 0.151550
vt 0.375000 -0.546734
vt 0.419702 -0.546734
vt 0.817183 0.151550
vt 0.817183 0.720074
vt 0.853862 0.720074
vt 0.968665 0.866789
vt 0.968665 0.133211
vt 0.872981 0.133211
vt 0.872981 0.866789
vt 0.094541 0.151550
vt 0.026292 0.156135
vt 0.026292 0.133211
vt 0.131220 0.151550
vt 0.131220 0.720074
vt 0.094541 0.720074
vt 0.072141 0.133211
vt 0.817183 0.866789
vt 0.853862 0.866789
vt 0.072141 0.156135
vt 0.535978 0.866789
vt 0.487073 0.866789
vt 0.072141 0.866789
vt 0.026292 0.866789
vt 0.026292 0.133211
vt 0.026292 0.156135
vt 0.072141 0.156135
vt 0.131220 0.151550
vt 0.131220 0.151550
vt 0.072141 0.133211
vt 0.131220 0.151326
vt 0.131220 0.150786
vt 0.817183 0.150786
vt 0.026292 0.866789
vt 0.072141 0.866789
vt 0.817183 0.151326
vt 0.817183 0.151550
vt 0.817183 0.151550
vt 0.131220 0.133211
vt 0.131220 0.133211
vt 0.461331 0.866789
vt 0.412425 0.866789
vt 0.131220 0.866789
vt 0.094541 0.866789
vt 0.131220 0.151550
vt 0.131220 0.150786
vt 0.412425 0.150786
vt 0.412425 0.151326
vt 0.412425 0.151550
vt 0.412425 0.151550
vt 0.535978 0.151550
vt 0.535978 0.151550
vt 0.535978 0.151326
vt 0.535978 0.150786
vn 0.000000 0.000000 1.000000
vn -0.000000 0.000000 1.000000
vn -0.000000 0.000000 1.000000
vn 0.000000 0.000000 1.000000
vn 0.000000 1.000000 0.000000
vn 0.000000 1.000000 0.000000
vn 0.000000 1.000000 0.000000
vn 0.000000 1.000000 0.000000
vn 0.000000 0.000000 -1.000000
vn 0.000000 0.000000 -1.000000
vn 0.000000 0.000000 -1.000000
vn 0.000000 0.000000 -1.000000
vn 0.000000 -1.000000 0.000000
vn 0.000000 -1.000000 0.000000
vn 0.000000 -1.000000 0.000000
vn 0.000000 -1.000000 0.000000
vn 1.000000 0.000000 0.000000
vn 1.000000 0.000000 0.000000
vn 0.999924 0.012352 0.000000
vn 0.999924 0.012352 0.000000
vn -1.000000 0.000000 0.000000
vn -1.000000 0.000000 0.000000
vn -0.999924 0.012352 0.000000
vn -0.999924 0.012352 0.000000
vn 0.000000 0.000000 1.000000
vn -0.000000 0.000000 1.000000
vn 0.000000 0.000000 1.000000
vn 0.000000 0.000000 1.000000
vn -1.000000 -0.000000 0.000000
vn -1.000000 -0.000000 0.000000
vn -1.000000 0.000000 0.000000
vn -1.000000 -0.000000 0.000000
vn 0.000000 0.000000 -1.000000
vn 0.000000 0.000000 -1.000000
vn 0.000000 0.000000 -1.000000
vn 0.000000 0.000000 -1.000000
vn 1.000000 0.000000 0.000000
vn 1.000000 0.000000 0.000000
vn 1.000000 0.000000 0.000000
vn 1.000000 0.000000 0.000000
vn 0.000000 -1.000000 0.000000
vn 0.000000 -1.000000 0.000000
vn 0.000000 -1.000000 0.000000
vn 0.000000 -1.000000 0.000000
vn 0.000000 1.000000 0.000001
vn 0.000000 1.000000 0.000001
vn 0.169081 0.985602 0.000000
vn 0.169081 0.985602 0.000000
vn 0.000000 0.000000 0.000000
vn 0.000000 0.000000 0.000000
vn 0.000000 0.000000 0.000000
vn 0.000000 0.000000 0.000000
vn 0.000000 0.000000 0.000000
vn 0.000000 0.000000 0.000000
vn 0.000000 0.000000 0.000000
vn 0.000000 0.000000 0.000000
vn 0.000000 0.000000 0.000000
vn 0.000000 0.000000 0.000000
vn 0.000000 0.000000 0.000000
vn 0.000000 0.000000 0.000000
vn 0.000000 0.000000 0.000000
vn 0.000000 0.000000 0.000000
vn 0.000000 0.000000 0.000000
vn 0.000000 0.000000 0.000000
vn 0.000000 -1.000000 0.000000
vn 0.000000 -1.000000 0.000000
vn 0.000000 -1.000000 0.000000
vn 0.000000 -1.000000 0.000000
vn 0.000000 1.000000 0.000001
vn 0.000000 1.000000 0.000001
vn -0.169081 0.985602 0.000000
vn -0.169081 0.985602 0.000000
vn 0.999924 0.012352 0.000000
vn 0.923881 0.382681 0.000000
vn 0.923881 0.382681 0.000000
vn 0.999924 0.012352 0.000000
vn 0.382679 0.923881 0.000000
vn 0.169081 0.985602 0.000000
vn 0.169081 0.985602 0.000000
vn 0.382679 0.923881 0.000000
vn -0.999924 0.012352 0.000000
vn -0.923881 0.382681 0.000000
vn -0.923881 0.382681 0.000000
vn -0.999924 0.012352 0.000000
vn -0.382679 0.923881 0.000000
vn -0.169081 0.985602 0.000000
vn -0.169081 0.985602 0.000000
vn -0.382679 0.923881 0.000000
vn 0.000000 0.000000 -1.000000
vn 0.000000 0.000000 -1.000000
vn 0.000000 0.000000 -1.000000
vn 0.000000 0.000000 -1.000000
vn 0.000000 0.000000 -1.000000
vn 0.000000 0.000000 -1.000000
vn -0.000000 0.000000 1.000000
vn -0.000000 0.000000 1.000000
vn -0.000003 0.000000 1.000000
vn -0.000003 0.000000 1.000000
vn -0.000003 0.000000 1.000000
vn -0.000003 0.000000 1.000000
vn 0.000000 0.000000 1.000000
vn 0.000000 0.000000 1.000000
vn 0.000000 0.000000 1.000000
vn 0.000000 0.000000 1.000000
vn 0.000000 0.000000 1.000000
vn 0.000000 0.000000 1.000000
vn 0.000003 0.000000 -1.000000
vn 0.000003 0.000000 -1.000000
vn 0.000003 0.000000 -1.000000
vn 0.000003 0.000000 -1.000000
vn 0.000003 0.000000 -1.000000
vn 0.000003 0.000000 -1.000000
vn 0.000000 1.000000 0.000000
vn 0.000000 1.000000 0.000000
vn 0.000000 1.000000 0.000000
vn 0.000000 1.000000 0.000000
vn -1.000000 0.000000 0.000000
vn -1.000000 0.000000 0.000000
vn -1.000000 0.000000 0.000000
vn -1.000000 0.000000 0.000000
vn 0.000000 0.000000 0.000000
vn 0.000000 0.000000 0.000000
vn 0.000000 0.000000 0.000000
vn 0.000000 0.000000 0.000000
vn -0.169081 0.985602 -0.000000
vn 0.000000 1.000000 -0.000001
vn 0.000000 1.000000 -0.000001
vn -0.169081 0.985602 -0.000000
vn -0.382679 0.923881 0.000000
vn -0.169081 0.985602 -0.000000
vn -0.169081 0.985602 -0.000000
vn -0.382679 0.923881 0.000000
vn -0.999924 0.012353 0.000000
vn -0.923880 0.382682 0.000000
vn -0.923880 0.382682 0.000000
vn -0.999924 0.012353 0.000000
vn -1.000000 0.000000 0.000000
vn -1.000000 0.000000 0.000000
vn -0.999924 0.012353 0.000000
vn -0.999924 0.012353 0.000000
vn 0.000000 -1.000000 0.000000
vn 0.000000 -1.000000 0.000000
vn 0.000000 -1.000000 0.000000
vn 0.000000 -1.000000 0.000000
vn 0.000000 0.000000 0.000000
vn 0.000000 0.000000 0.000000
vn 0.000000 0.000000 0.000000
vn 0.000000 0.000000 0.000000
vn 0.000000 -1.000000 0.000000
vn 0.000000 -1.000000 0.000000
vn 0.000000 -1.000000 0.000000
vn 0.000000 -1.000000 0.000000
vn 0.000000 -1.000000 0.000000
vn 0.000000 -1.000000 0.000000
vn 0.000000 -1.000000 0.000000
vn 0.000000 -1.000000 0.000000
vn 0.999924 0.012353 0.000000
vn 1.000000 0.000000 0.000000
vn 1.000000 0.000000 0.000000
vn 0.999924 0.012353 0.000000
vn 0.999924 0.012353 0.000000
vn 0.923880 0.382682 0.000000
vn 0.923880 0.382682 0.000000
vn 0.999924 0.012353 0.000000
vn 0.382679 0.923881 0.000000
vn 0.169081 0.985602 -0.000001
vn 0.169081 0.985602 -0.000001
vn 0.382679 0.923881 0.000000
vn 0.000000 1.000000 -0.000001
vn 0.000000 1.000000 -0.000001
vn 0.169081 0.985602 -0.000001
vn 0.169081 0.985602 -0.000001
vn 1.000000 0.000000 0.000000
vn 1.000000 0.000000 0.000000
vn 1.000000 0.000000 0.000000
vn 1.000000 0.000000 0.000000
vn 0.000000 1.000000 0.000000
vn 0.000000 1.000000 0.000000
vn 0.000000 1.000000 0.000000
vn 0.000000 1.000000 0.000000
vn 0.000000 0.000000 1.000000
vn 0.000000 0.000000 1.000000
vn 0.000000 0.000000 1.000000
vn 0.000000 0.000000 1.000000
vn -1.000000 -0.000000 0.000000
vn -1.000000 0.000000 0.000000
vn -1.000000 0.000000 0.000000
vn -1.000000 0.000000 0.000000
vn -1.000000 0.000000 0.000000
vn -1.000000 -0.000000 0.000000
vn -1.000000 0.000000 0.000000
vn -1.000000 0.000000 0.000000
vn -1.000000 0.000000 0.000000
vn -1.000000 0.000000 0.000000
vn -1.000000 0.000000 0.000000
vn -1.000000 0.000000 0.000000
vn 0.000000 0.000000 -1.000000
vn 0.000000 0.000000 -1.000000
vn 0.000000 0.000000 -1.000000
vn 0.000000 0.000000 -1.000000
vn 1.000000 0.000000 0.000000
vn 1.000000 0.000000 0.000000
vn 1.000000 0.000000 0.000000
vn 1.000000 0.000000 0.000000
vn 1.000000 0.000000 0.000000
vn 1.000000 0.000000 0.000000
vn 1.000000 0.000000 0.000000
vn 1.000000 0.000000 0.000000
vn 1.000000 0.000000 0.000000
vn 1.000000 0.000000 0.000000
vn 1.000000 0.000000 0.000000
vn 1.000000 0.000000 0.000000
vn 0.000000 -1.000000 0.000000
vn 0.000000 -1.000000 0.000000
vn 0.000000 -1.000000 0.000000
vn 0.000000 -1.000000 0.000000
vn 0.000010 0.000000 1.000000
vn 0.000010 0.000000 1.000000
vn 0.000010 0.000000 1.000000
vn 0.000010 0.000000 1.000000
vn 0.000010 0.000000 1.000000
vn 0.000010 0.000000 1.000000
vn -0.000010 0.000000 1.000000
vn -0.000010 0.000000 1.000000
vn -0.000010 0.000000 1.000000
vn -0.000010 0.000000 1.000000
vn -0.000010 0.000000 1.000000
vn -0.000010 0.000000 1.000000
vn 0.000000 0.000000 1.000000
vn 0.000000 0.000000 1.000000
vn 0.000000 0.000000 1.000000
vn 0.000000 0.000000 1.000000
vn 0.000000 0.000000 1.000000
vn 0.000000 0.000000 1.000000
vn 0.000000 0.000000 1.000000
vn 0.000000 0.000000 1.000000
vn 0.000000 0.000000 -1.000000
vn 0.000000 0.000000 -1.000000
vn 0.000000 0.000000 -1.000000
vn 0.000000 0.000000 -1.000000
vn 0.000000 0.000000 -1.000000
vn 0.000000 0.000000 -1.000000
vn 0.000000 -0.000000 -1.000000
vn 0.000000 -0.000000 -1.000000
vn 0.000000 -0.000000 -1.000000
vn 0.000000 -0.000000 -1.000000
vn 0.000000 -0.000000 -1.000000
vn 0.000000 -0.000000 -1.000000
vn 0.000000 0.000000 -1.000000
vn 0.000000 0.000000 -1.000000
vn 0.000000 0.000000 -1.000000
vn 0.000000 0.000000 -1.000000
vn 0.000000 -0.000000 -1.000000
vn 0.000000 -0.000000 -1.000000
vn 0.000000 -0.000000 -1.000000
vn 0.000000 -0.000000 -1.000000
s off
g pCube1
usemtl aiStandardSurface1SG
f 1/1/1 2/29/2 9/20/3 10/14/4
f 3/2/5 4/3/6 49/61/7 50/64/8
f 11/16/9 12/17/10 8/7/11 7/6/12
f 58/73/13 59/74/14 2/9/15 1/8/16
f 14/10/17 60/11/18 61/19/19 24/23/20
f 56/13/21 20/21/22 28/25/23 55/26/24
f 10/14/25 9/20/26 65/81/27 66/82/28
f 51/33/29 10/35/30 66/36/31 67/39/32
f 69/86/33 70/87/34 12/17/35 11/16/36
f 9/24/37 64/27/38 72/28/39 65/30/40
f 2/31/41 59/37/42 60/11/43 14/10/44
f 64/27/45 9/24/46 26/38/47 63/42/48
f 58/72/49 1/1/50 16/18/51 57/71/52
f 1/1/53 10/14/54 17/32/55 16/18/56
f 10/14/57 51/65/58 52/66/59 17/32/60
f 11/15/61 7/12/62 15/34/63 18/22/64
f 57/40/65 16/43/66 20/21/67 56/13/68
f 17/47/69 52/48/70 53/49/71 29/50/72
f 61/19/73 62/55/74 25/56/75 24/23/76
f 62/55/77 63/42/78 26/38/79 25/56/80
f 28/25/81 27/63/82 54/67/83 55/26/84
f 27/63/85 29/50/86 53/49/87 54/67/88
f 21/57/89 22/58/90 13/59/91 8/60/92 12/62/93 23/75/94
f 9/24/95 2/31/96 14/10/97 24/23/98 25/56/99 26/38/100
f 27/63/101 28/25/102 20/21/103 16/43/104 17/47/105 29/50/106
f 18/68/107 15/69/108 19/70/109 30/83/110 31/84/111 32/85/112
f 34/44/113 33/41/114 6/5/115 5/4/116
f 11/95/117 35/98/118 68/99/119 69/100/120
f 36/46/121 35/45/122 11/15/123 18/22/124
f 37/112/125 36/113/126 18/68/127 32/85/128
f 38/115/129 37/112/130 32/85/131 31/84/132
f 39/116/133 38/115/134 31/84/135 30/83/136
f 19/70/137 40/123/138 39/116/139 30/83/140
f 15/69/141 41/124/142 40/123/143 19/70/144
f 7/12/145 42/52/146 41/51/147 15/34/148
f 7/6/149 8/7/150 43/54/151 42/53/152
f 44/76/153 43/77/154 8/60/155 13/59/156
f 45/78/157 44/76/158 13/59/159 22/58/160
f 22/58/161 21/57/162 46/79/163 45/78/164
f 21/57/165 23/75/166 47/80/167 46/79/168
f 12/62/169 48/88/170 47/80/171 23/75/172
f 71/89/173 48/88/174 12/62/175 70/90/176
f 50/64/177 49/61/178 33/41/179 34/44/180
f 66/82/181 65/81/182 4/3/183 3/2/184
f 67/39/185 66/36/186 3/125/187 50/126/188
f 68/99/189 67/39/190 50/126/191 34/127/192
f 69/100/193 68/99/194 34/127/195 5/128/196
f 5/4/197 6/5/198 70/87/199 69/86/200
f 33/102/201 71/89/202 70/90/203 6/103/204
f 49/105/205 72/28/206 71/89/207 33/102/208
f 65/30/209 72/28/210 49/105/211 4/106/212
f 71/91/213 72/92/214 67/93/215 68/94/216
f 40/123/217 41/124/218 74/129/219 37/112/220 38/115/221 73/130/222
f 43/77/223 44/76/224 76/117/225 78/120/226 77/121/227 75/122/228
f 74/96/229 41/97/230 43/101/231 75/104/232
f 74/96/233 75/104/234 80/107/235 79/108/236
f 57/40/237 56/13/238 81/131/239 83/132/240 84/133/241 82/134/242
f 60/11/243 59/37/244 85/135/245 87/136/246 88/137/247 86/138/248
f 57/109/249 82/110/250 85/111/251 59/114/252
f 67/118/253 72/119/254 85/111/255 82/110/256
