# This file uses centimeters as units for non-parametric coordinates.

mtllib Floor Ceiling Textured.mtl
g default
v 12.000000 -1.200000 12.064351
v 12.000000 -1.200000 -11.435649
v 12.000000 -1.200000 11.564351
v 11.500000 -1.200000 -11.435649
v 11.500000 -1.200000 11.564351
v 11.500000 -1.200000 12.064351
v 11.500000 1.200000 11.564351
v 11.500000 1.200000 -11.435649
v -11.500000 -1.200000 -11.435649
v -11.500000 -1.200000 11.564351
v -11.500000 -1.200000 12.064351
v -11.500000 1.200000 11.564351
v -11.500000 1.200000 -11.435649
v -11.480002 1.300000 11.544354
v -11.500000 1.280002 11.564351
v -11.500000 1.280002 -11.435649
v -11.480002 1.300000 -11.415651
v 11.480002 1.300000 11.544354
v 11.500000 1.280002 11.564351
v 11.480002 1.300000 -11.415651
v 11.500000 1.280002 -11.435649
v -12.000000 1.150005 12.064351
v -11.985356 1.185357 12.049708
v -11.950005 1.200000 12.014356
v -11.500000 1.150005 12.064351
v -11.500000 1.185357 12.049708
v -11.500000 1.200000 12.014356
v -11.950005 1.200000 -11.885653
v -11.985356 1.185357 -11.921005
v -12.000000 1.150005 -11.935649
v -11.500000 1.150005 -11.935649
v -11.500000 1.185357 -11.921005
v -11.500000 1.200000 -11.885653
v -12.000000 1.150005 11.564351
v -11.985356 1.185357 11.564351
v -11.950005 1.200000 11.564351
v 12.000000 1.150005 12.064351
v 11.985356 1.185357 12.049708
v 11.950005 1.200000 12.014356
v 12.000000 1.150005 11.564351
v 11.985356 1.185357 11.564351
v 11.950005 1.200000 11.564351
v -12.000000 1.150005 -11.435649
v -11.985356 1.185357 -11.435649
v -11.950005 1.200000 -11.435649
v 11.950005 1.200000 -11.885653
v 11.985356 1.185357 -11.921005
v 12.000000 1.150005 -11.935649
v 12.000000 1.150005 -11.435649
v 11.985356 1.185357 -11.435649
v 11.950005 1.200000 -11.435649
v 11.500000 1.200000 -11.885653
v 11.500000 1.185357 -11.921005
v 11.500000 1.150005 -11.935649
v 11.500000 1.150005 12.064351
v 11.500000 1.185357 12.049708
v 11.500000 1.200000 12.014356
v -11.925008 -1.200000 -11.860656
v -11.978035 -1.178035 -11.913684
v -12.000000 -1.125008 -11.935649
v -11.500000 -1.200000 -11.860656
v -11.500000 -1.178035 -11.913684
v -11.500000 -1.125008 -11.935649
v -11.925008 -1.200000 -11.435649
v -11.978035 -1.178035 -11.435649
v -12.000000 -1.125008 -11.435649
v -11.925008 -1.200000 11.564351
v -11.978035 -1.178035 11.564351
v -12.000000 -1.125008 11.564351
v -12.000000 -1.125008 12.064351
v -11.978035 -1.178035 12.064351
v -11.925008 -1.200000 12.064351
v 12.000000 -1.125008 -11.935649
v 12.000000 -1.200000 -11.860656
v 12.000000 -1.178035 -11.913684
v 11.500000 -1.200000 -11.860656
v 11.500000 -1.178035 -11.913684
v 11.500000 -1.125008 -11.935649
vt 0.301267 0.021278
vt 0.301267 0.429688
vt 0.292388 0.429688
vt 0.292388 0.021278
vt 0.301267 0.012400
vt 0.299066 0.510621
vt 0.298710 0.510266
vt 0.707121 0.510266
vt 0.706766 0.510621
vt 0.299066 0.918321
vt 0.298710 0.918676
vt 0.706766 0.918321
vt 0.707121 0.918676
vt 0.298710 0.918676
vt 0.298710 0.510266
vt 0.707121 0.510266
vt 0.707121 0.918676
vt 0.292388 0.012400
vt 0.289832 0.927554
vt 0.290092 0.927294
vt 0.298710 0.927294
vt 0.709677 0.021278
vt 0.298710 0.927554
vt 0.290720 0.926666
vt 0.298710 0.926666
vt 0.715999 0.927554
vt 0.715739 0.927294
vt 0.715739 0.918676
vt 0.709677 0.429688
vt 0.715999 0.918676
vt 0.715111 0.926666
vt 0.715111 0.918676
vt 0.290720 0.502275
vt 0.298710 0.502275
vt 0.290720 0.510266
vt 0.709677 0.012400
vt 0.290720 0.918676
vt 0.707121 0.502275
vt 0.715111 0.502275
vt 0.715111 0.510266
vt 0.707121 0.926666
vt 0.289832 0.501387
vt 0.290092 0.501647
vt 0.290092 0.510266
vt 0.289832 0.510266
vt 0.298710 0.501647
vt 0.298710 0.501387
vt 0.290092 0.918676
vt 0.289832 0.918676
vt 0.715999 0.501387
vt 0.715739 0.501647
vt 0.707121 0.501647
vt 0.707121 0.501387
vt 0.715739 0.510266
vt 0.715999 0.510266
vt 0.707121 0.927294
vt 0.707121 0.927554
vt 0.770070 0.501164
vt 0.770070 0.510042
vt 0.728341 0.510042
vt 0.707721 0.493172
vt 0.707721 0.451443
vt 0.718555 0.021278
vt 0.718165 0.021278
vt 0.718165 0.012400
vt 0.718555 0.012400
vt 0.717223 0.021278
vt 0.718165 0.429688
vt 0.717223 0.012400
vt 0.301267 0.438177
vt 0.717223 0.437235
vt 0.709677 0.438177
vt 0.709677 0.437235
vt 0.718165 0.438177
vt 0.292388 0.438177
vt 0.717223 0.429688
vt 0.301267 0.437235
vt 0.301267 0.438567
vt 0.292388 0.437235
vt 0.292388 0.438567
vt 0.287447 0.945867
vt 0.296326 0.945867
vt 0.728341 0.501164
vt 0.709677 0.438567
vt 0.718555 0.438567
vt 0.238356 0.511413
vt 0.238356 0.502535
vt 0.718555 0.429688
vt 0.278753 0.502535
vt 0.296326 0.986264
vt 0.716600 0.451443
vt 0.716600 0.493172
vt 0.299311 0.493172
vt 0.299311 0.451443
vt 0.290433 0.493172
vt 0.290433 0.452775
vt 0.290823 0.451833
vt 0.291764 0.451443
vt 0.278753 0.511413
vt 0.238356 0.928702
vt 0.238356 0.919823
vt 0.278753 0.919823
vt 0.278753 0.928702
vt 0.287447 0.986264
vt 0.704736 0.945867
vt 0.713614 0.945867
vt 0.713614 0.986264
vt 0.704736 0.986264
vt 0.770070 0.918452
vt 0.728341 0.918452
vt 0.768738 0.927331
vt 0.728341 0.927331
vt 0.770070 0.925999
vt 0.769680 0.926941
vn 0.000000 -1.000000 0.000000
vn 0.000000 -1.000000 0.000000
vn 0.000000 -1.000000 0.000000
vn 0.000000 -1.000000 0.000000
vn 0.000000 -1.000000 0.000000
vn 0.000000 -1.000000 0.000000
vn 0.000000 -1.000000 0.000000
vn 0.000000 -1.000000 0.000000
vn 0.000000 -1.000000 0.000000
vn 0.000000 -1.000000 0.000000
vn 0.000000 -1.000000 0.000000
vn 0.000000 -1.000000 0.000000
vn 0.000000 -1.000000 0.000000
vn 0.000000 -1.000000 0.000000
vn 0.000000 -1.000000 0.000000
vn 0.000000 -1.000000 0.000000
vn 0.000000 0.707101 0.707112
vn 0.000000 0.707101 0.707112
vn 0.000000 0.707101 0.707112
vn 0.000000 0.707101 0.707112
vn -0.707099 0.707115 0.000000
vn -0.707099 0.707115 0.000000
vn -0.707099 0.707115 0.000000
vn -0.707099 0.707115 0.000000
vn 0.000000 0.707101 -0.707112
vn 0.000000 0.707101 -0.707112
vn 0.000000 0.707101 -0.707112
vn 0.000000 0.707101 -0.707112
vn 0.707099 0.707115 0.000000
vn 0.707099 0.707115 0.000000
vn 0.707099 0.707115 0.000000
vn 0.707099 0.707115 0.000000
vn 0.000000 1.000000 0.000000
vn 0.000000 1.000000 0.000000
vn 0.000000 1.000000 0.000000
vn 0.000000 1.000000 0.000000
vn -1.000000 0.000000 0.000000
vn -1.000000 0.000000 0.000000
vn -1.000000 0.000000 0.000000
vn -1.000000 0.000000 0.000000
vn 0.000000 0.000000 1.000000
vn 0.000000 0.000000 1.000000
vn 0.000000 0.000000 1.000000
vn 0.000000 0.000000 1.000000
vn 1.000000 0.000000 0.000000
vn 1.000000 0.000000 0.000000
vn 1.000000 0.000000 0.000000
vn 1.000000 0.000000 0.000000
vn 0.000000 0.000000 -1.000000
vn 0.000000 0.000000 -1.000000
vn 0.000000 0.000000 -1.000000
vn 0.000000 0.000000 -1.000000
vn 0.000000 0.006085 -0.999982
vn 0.000000 0.382694 -0.923875
vn 0.000000 0.382695 -0.923875
vn 0.000000 0.006336 -0.999980
vn 0.000000 0.923881 -0.382679
vn -0.032629 0.998935 -0.032629
vn 0.000000 0.999545 -0.030177
vn 0.000000 0.923881 -0.382679
vn 0.999983 0.005901 0.000000
vn 0.923876 0.382692 0.000000
vn 0.923880 0.382683 0.000000
vn 0.999981 0.006137 0.000000
vn 0.382678 0.923882 0.000000
vn 0.032629 0.998935 -0.032629
vn 0.030177 0.999545 0.000000
vn 0.382672 0.923884 0.000000
vn -0.032629 0.998935 0.032629
vn 0.000000 0.999545 0.030177
vn 0.000000 1.000000 -0.000000
vn -0.030177 0.999545 0.000000
vn 1.000000 0.000000 0.000000
vn 1.000000 0.000000 0.000000
vn 0.999981 0.006137 0.000000
vn 0.999983 0.005893 0.000000
vn -0.030177 0.999545 0.000000
vn 0.000000 1.000000 0.000000
vn 0.000000 0.999545 -0.030177
vn -0.032629 0.998935 -0.032629
vn 0.999981 0.006137 0.000000
vn 1.000000 0.000000 0.000000
vn 1.000000 0.000000 0.000000
vn 0.999981 0.006137 0.000000
vn -0.030177 0.999545 0.000000
vn 0.000000 1.000000 -0.000000
vn 0.000000 1.000000 0.000000
vn -0.030177 0.999545 0.000000
vn 0.000000 0.006137 0.999981
vn 0.000000 0.000000 1.000000
vn 0.000000 0.000000 1.000000
vn 0.000000 0.005893 0.999983
vn -0.000000 1.000000 -0.000000
vn -0.000000 0.999545 0.030177
vn 0.032629 0.998935 0.032629
vn 0.030177 0.999545 0.000000
vn -0.000000 1.000000 0.000000
vn -0.000000 1.000000 -0.000000
vn 0.030177 0.999545 0.000000
vn 0.030177 0.999545 0.000000
vn -0.000000 0.999545 -0.030177
vn -0.000000 1.000000 0.000000
vn 0.030177 0.999545 0.000000
vn 0.032629 0.998935 -0.032629
vn -0.000000 0.006137 0.999981
vn -0.000000 0.000000 1.000000
vn 0.000000 0.000000 1.000000
vn 0.000000 0.006137 0.999981
vn 0.000000 1.000000 -0.000000
vn 0.000000 0.999545 0.030177
vn -0.000000 0.999545 0.030177
vn -0.000000 1.000000 -0.000000
vn 0.000000 0.999545 -0.030177
vn 0.000000 1.000000 0.000000
vn -0.000000 1.000000 0.000000
vn -0.000000 0.999545 -0.030177
vn -0.999981 0.006085 0.000000
vn -0.923876 0.382692 0.000000
vn -0.923880 0.382683 0.000000
vn -0.999980 0.006336 0.000000
vn -0.382678 0.923882 0.000000
vn -0.032629 0.998935 0.032629
vn -0.030177 0.999545 0.000000
vn -0.382672 0.923884 0.000000
vn -0.032629 0.998935 0.032629
vn 0.000000 0.923881 0.382679
vn 0.000000 0.923881 0.382679
vn 0.000000 0.999545 0.030177
vn 0.000000 0.382694 0.923875
vn -0.000002 0.005901 0.999983
vn -0.000000 0.006137 0.999981
vn 0.000000 0.382695 0.923875
vn -0.999980 0.006336 0.000000
vn -0.923880 0.382683 0.000000
vn -0.923880 0.382683 0.000000
vn -0.999980 0.006336 0.000000
vn -0.382672 0.923884 0.000000
vn -0.030177 0.999545 0.000000
vn -0.030177 0.999545 0.000000
vn -0.382672 0.923884 0.000000
vn 0.000000 0.005893 0.999983
vn 0.000000 0.382694 0.923875
vn 0.000000 0.382695 0.923875
vn 0.000000 0.006137 0.999981
vn 0.000000 0.923881 0.382679
vn 0.032629 0.998935 0.032629
vn -0.000000 0.999545 0.030177
vn 0.000000 0.923881 0.382679
vn 0.032629 0.998935 0.032629
vn 0.382678 0.923882 0.000000
vn 0.382672 0.923884 0.000000
vn 0.030177 0.999545 0.000000
vn 0.923876 0.382692 0.000000
vn 0.999983 0.005893 0.000000
vn 0.999981 0.006137 0.000000
vn 0.923880 0.382683 0.000000
vn -0.032629 0.998935 -0.032629
vn -0.382678 0.923882 0.000000
vn -0.382672 0.923884 0.000000
vn -0.030177 0.999545 0.000000
vn -0.923876 0.382692 0.000000
vn -0.999981 0.006085 0.000000
vn -0.999980 0.006336 0.000000
vn -0.923880 0.382683 0.000000
vn 0.032629 0.998935 -0.032629
vn 0.000000 0.923881 -0.382679
vn 0.000000 0.923881 -0.382679
vn -0.000000 0.999545 -0.030177
vn 0.000000 0.382694 -0.923875
vn 0.000000 0.006085 -0.999982
vn 0.000000 0.006336 -0.999980
vn 0.000000 0.382695 -0.923875
vn 0.030177 0.999545 0.000000
vn 0.382672 0.923884 0.000000
vn 0.382672 0.923884 0.000000
vn 0.030177 0.999545 0.000000
vn 0.923880 0.382683 0.000000
vn 0.999981 0.006137 0.000000
vn 0.999981 0.006137 0.000000
vn 0.923880 0.382683 0.000000
vn 0.000000 0.006336 -0.999980
vn 0.000000 0.382695 -0.923875
vn 0.000000 0.382695 -0.923875
vn 0.000000 0.006336 -0.999980
vn 0.000000 0.923881 -0.382679
vn 0.000000 0.999545 -0.030177
vn -0.000000 0.999545 -0.030177
vn 0.000000 0.923881 -0.382679
vn 0.000000 0.999545 0.030177
vn 0.000000 0.923881 0.382679
vn 0.000000 0.923881 0.382679
vn -0.000000 0.999545 0.030177
vn 0.000000 0.382695 0.923875
vn -0.000000 0.006137 0.999981
vn 0.000000 0.006137 0.999981
vn 0.000000 0.382695 0.923875
vn -0.999956 -0.009434 0.000000
vn -0.923880 -0.382682 0.000000
vn -0.923878 -0.382687 0.000000
vn -0.999955 -0.009435 0.000000
vn -0.382683 -0.923880 0.000000
vn -0.045900 -0.998946 0.000000
vn -0.045900 -0.998946 0.000000
vn -0.382686 -0.923878 0.000000
vn -0.045900 -0.998946 0.000000
vn 0.000000 -1.000000 0.000000
vn 0.000000 -1.000000 0.000000
vn -0.045900 -0.998946 0.000000
vn -0.048171 -0.997677 -0.048171
vn 0.000000 -0.998944 -0.045946
vn 0.000000 -1.000000 0.000000
vn -0.045946 -0.998944 0.000000
vn -0.045946 -0.998944 0.000000
vn 0.000000 -1.000000 0.000000
vn 0.000000 -1.000000 0.000000
vn -0.045900 -0.998946 0.000000
vn 0.000000 -1.000000 0.000000
vn 0.000000 -0.998946 -0.045899
vn 0.000000 -0.998946 -0.045900
vn 0.000000 -1.000000 0.000000
vn 0.000000 -1.000000 0.000000
vn 0.000000 -0.998944 -0.045946
vn 0.000000 -0.998946 -0.045899
vn 0.000000 -1.000000 0.000000
vn 0.000000 0.006085 -0.999982
vn 0.000000 0.006336 -0.999980
vn 0.000000 -0.009430 -0.999956
vn 0.000000 -0.008994 -0.999960
vn -0.999956 -0.009434 0.000000
vn -0.999955 -0.009435 0.000000
vn -0.999981 0.006085 0.000000
vn -0.999980 0.006336 0.000000
vn -0.999960 -0.008994 0.000000
vn -0.999956 -0.009430 0.000000
vn -0.999980 0.006336 0.000000
vn -0.999981 0.006085 0.000000
vn -0.999956 -0.009430 0.000000
vn -0.999956 -0.009434 0.000000
vn -0.999980 0.006336 0.000000
vn -0.999980 0.006336 0.000000
vn 0.000000 0.006336 -0.999980
vn 0.000000 0.006085 -0.999982
vn 0.000000 -0.009435 -0.999955
vn 0.000000 -0.009435 -0.999956
vn 0.000000 0.006336 -0.999980
vn 0.000000 0.006336 -0.999980
vn 0.000000 -0.009435 -0.999956
vn 0.000000 -0.009430 -0.999956
vn -0.000000 0.000000 1.000000
vn -0.000000 0.006137 0.999981
vn -0.000002 0.005901 0.999983
vn -0.000002 0.000000 1.000000
vn -0.000002 0.000000 1.000000
vn -0.000002 0.000000 1.000000
vn 1.000000 0.000000 0.000000
vn 0.999983 0.005901 0.000000
vn 0.999981 0.006137 0.000000
vn 1.000000 0.000000 0.000000
vn 1.000000 0.000000 0.000000
vn 1.000000 0.000000 0.000000
vn -0.048171 -0.997677 -0.048171
vn 0.000000 -0.923878 -0.382686
vn 0.000000 -0.923879 -0.382685
vn 0.000000 -0.998944 -0.045946
vn 0.000000 -0.382687 -0.923878
vn 0.000000 -0.008994 -0.999960
vn 0.000000 -0.009430 -0.999956
vn 0.000000 -0.382687 -0.923878
vn 0.000000 -0.998944 -0.045946
vn 0.000000 -0.923879 -0.382685
vn 0.000000 -0.923879 -0.382685
vn 0.000000 -0.998946 -0.045899
vn 0.000000 -0.382687 -0.923878
vn 0.000000 -0.009430 -0.999956
vn 0.000000 -0.009435 -0.999956
vn 0.000000 -0.382687 -0.923878
vn -0.999960 -0.008994 0.000000
vn -0.923879 -0.382685 0.000000
vn -0.923880 -0.382682 0.000000
vn -0.999956 -0.009430 0.000000
vn -0.382685 -0.923879 0.000000
vn -0.048171 -0.997677 -0.048171
vn -0.045946 -0.998944 0.000000
vn -0.382683 -0.923880 0.000000
vn -0.999956 -0.009430 0.000000
vn -0.923880 -0.382682 0.000000
vn -0.923880 -0.382682 0.000000
vn -0.999956 -0.009434 0.000000
vn -0.382683 -0.923880 0.000000
vn -0.045946 -0.998944 0.000000
vn -0.045900 -0.998946 0.000000
vn -0.382683 -0.923880 0.000000
vn 0.000000 -0.009435 -0.999955
vn 0.000000 -0.382687 -0.923878
vn 0.000000 -0.382687 -0.923878
vn 0.000000 -0.009435 -0.999956
vn 0.000000 -0.923878 -0.382686
vn 0.000000 -0.998946 -0.045900
vn 0.000000 -0.998946 -0.045899
vn 0.000000 -0.923879 -0.382685
s off
g pCube1
usemtl aiStandardSurface1SG
f 5/1/1 4/2/2 2/3/3 3/4/4
f 6/5/5 5/1/6 3/4/7 1/18/8
f 10/22/9 9/29/10 4/2/11 5/1/12
f 11/36/13 10/22/14 5/1/15 6/5/16
f 14/6/17 15/7/18 19/8/19 18/9/20
f 15/7/21 14/6/22 17/10/23 16/11/24
f 16/11/25 17/10/26 20/12/27 21/13/28
f 18/9/29 19/8/30 21/13/31 20/12/32
f 17/10/33 14/6/34 18/9/35 20/12/36
f 13/14/37 12/15/38 15/7/39 16/11/40
f 12/15/41 7/16/42 19/8/43 15/7/44
f 7/16/45 8/17/46 21/13/47 19/8/48
f 8/17/49 13/14/50 16/11/51 21/13/52
f 30/19/53 29/20/54 32/21/55 31/23/56
f 29/20/57 28/24/58 33/25/59 32/21/60
f 48/26/61 47/27/62 50/28/63 49/30/64
f 47/27/65 46/31/66 51/32/67 50/28/68
f 24/33/69 27/34/70 12/15/71 36/35/72
f 1/58/73 3/59/74 40/60/75 37/83/76
f 45/37/77 13/14/78 33/25/79 28/24/80
f 40/60/81 3/59/82 2/109/83 49/110/84
f 36/35/85 12/15/86 13/14/87 45/37/88
f 55/61/89 6/62/90 1/91/91 37/92/92
f 7/16/93 57/38/94 39/39/95 42/40/96
f 8/17/97 7/16/98 42/40/99 51/32/100
f 52/41/101 8/17/102 51/32/103 46/31/104
f 25/93/105 11/94/106 6/62/107 55/61/108
f 12/15/109 27/34/110 57/38/111 7/16/112
f 33/25/113 13/14/114 8/17/115 52/41/116
f 22/42/117 23/43/118 35/44/119 34/45/120
f 23/43/121 24/33/122 36/35/123 35/44/124
f 24/33/125 23/43/126 26/46/127 27/34/128
f 23/43/129 22/42/130 25/47/131 26/46/132
f 34/45/133 35/44/134 44/48/135 43/49/136
f 35/44/137 36/35/138 45/37/139 44/48/140
f 37/50/141 38/51/142 56/52/143 55/53/144
f 38/51/145 39/39/146 57/38/147 56/52/148
f 39/39/149 38/51/150 41/54/151 42/40/152
f 38/51/153 37/50/154 40/55/155 41/54/156
f 28/24/157 29/20/158 44/48/159 45/37/160
f 29/20/161 30/19/162 43/49/163 44/48/164
f 46/31/165 47/27/166 53/56/167 52/41/168
f 47/27/169 48/26/170 54/57/171 53/56/172
f 42/40/173 41/54/174 50/28/175 51/32/176
f 41/54/177 40/55/178 49/30/179 50/28/180
f 31/23/181 32/21/182 53/56/183 54/57/184
f 32/21/185 33/25/186 52/41/187 53/56/188
f 27/34/189 26/46/190 56/52/191 57/38/192
f 26/46/193 25/47/194 55/53/195 56/52/196
f 69/63/197 68/64/198 71/65/199 70/66/200
f 68/64/201 67/67/202 72/69/203 71/65/204
f 67/67/205 10/22/206 11/36/207 72/69/208
f 58/71/209 61/73/210 9/29/211 64/76/212
f 64/76/213 9/29/214 10/22/215 67/67/216
f 4/2/217 76/77/218 74/79/219 2/3/220
f 9/29/221 61/73/222 76/77/223 4/2/224
f 30/81/225 31/82/226 63/90/227 60/104/228
f 69/86/229 70/87/230 22/89/231 34/99/232
f 60/100/233 66/101/234 43/102/235 30/103/236
f 66/101/237 69/86/238 34/99/239 43/102/240
f 54/105/241 48/106/242 73/107/243 78/108/244
f 31/82/245 54/105/246 78/108/247 63/90/248
f 11/94/249 25/93/250 22/95/251 70/96/252 71/97/253 72/98/254
f 73/111/255 48/112/256 49/110/257 2/109/258 74/113/259 75/114/260
f 58/71/261 59/74/262 62/72/263 61/73/264
f 59/74/265 60/85/266 63/84/267 62/72/268
f 61/73/269 62/72/270 77/70/271 76/77/272
f 62/72/273 63/84/274 78/78/275 77/70/276
f 60/85/277 59/74/278 65/68/279 66/88/280
f 59/74/281 58/71/282 64/76/283 65/68/284
f 66/88/285 65/68/286 68/64/287 69/63/288
f 65/68/289 64/76/290 67/67/291 68/64/292
f 73/80/293 75/75/294 77/70/295 78/78/296
f 75/75/297 74/79/298 76/77/299 77/70/300
