# This file uses inches as units for non-parametric coordinates.

mtllib Sanity Candy.mtl
g default
v -30.277223 22.805585 -42.939632
v -29.256408 23.340511 -42.841607
v -22.837411 23.524223 -42.841607
v -16.418413 23.483398 -42.841607
v -15.397598 22.913423 -42.933588
v -29.929009 24.200420 -42.919379
v -29.256408 24.200420 -42.380026
v -22.837411 24.200420 -42.380026
v -16.418413 24.200420 -42.380026
v -15.385307 24.200420 -42.888022
v -29.816100 27.462217 -42.919379
v -29.256408 27.462217 -42.380026
v -22.837411 27.462217 -42.380026
v -16.418413 27.462217 -42.380026
v -15.492562 27.462217 -42.888022
v -30.065595 30.724013 -42.919379
v -29.256408 30.724013 -42.380026
v -22.837411 30.724013 -42.380026
v -16.418413 30.724013 -42.380026
v -15.320955 30.724013 -42.888022
v -30.277223 31.626738 -42.942400
v -29.256408 31.400210 -42.900557
v -22.837411 31.400210 -42.900557
v -16.418413 31.216499 -42.900557
v -15.397598 31.636054 -42.939816
v -30.277223 31.626738 -42.943433
v -29.256408 31.400210 -42.922511
v -22.837411 31.400210 -42.922511
v -16.418413 31.216499 -42.922511
v -15.397598 31.636054 -42.942141
v -30.277223 31.626738 -42.944466
v -29.256408 31.400210 -42.944466
v -22.837411 31.400210 -42.944466
v -16.418413 31.216499 -42.944466
v -15.397598 31.636054 -42.944466
v -30.277223 31.626738 -42.945499
v -29.256408 31.400210 -42.966420
v -22.837411 31.400210 -42.966420
v -16.418413 31.216499 -42.966420
v -15.397598 31.636054 -42.946790
v -30.277223 31.626738 -42.946532
v -29.256408 31.400210 -42.988374
v -22.837411 31.400210 -42.988374
v -16.418413 31.216499 -42.988374
v -15.397598 31.636054 -42.949115
v -30.065595 30.724013 -42.969552
v -29.256408 30.724013 -43.508906
v -22.837411 30.724013 -43.650694
v -16.418413 30.724013 -43.508906
v -15.320955 30.724013 -43.000910
v -29.816100 27.462217 -42.969552
v -29.256408 27.462217 -43.650694
v -22.837411 27.462217 -43.815713
v -16.418413 27.462217 -43.650694
v -15.492562 27.462217 -43.000910
v -29.929009 24.200420 -42.969552
v -29.256408 24.200420 -43.508906
v -22.837411 24.200420 -43.650694
v -16.418413 24.200420 -43.508906
v -15.385307 24.200420 -43.000910
v -30.277223 22.805585 -42.949300
v -29.256408 23.340511 -43.047324
v -22.837411 23.524223 -43.047324
v -16.418413 23.483398 -43.047324
v -15.397598 22.913423 -42.955343
v -30.277223 22.805585 -42.946883
v -29.256408 23.340511 -42.995895
v -22.837411 23.524223 -42.995895
v -16.418413 23.483398 -42.995895
v -15.397598 22.913423 -42.949904
v -30.277223 22.805585 -42.944466
v -29.256408 23.340511 -42.944466
v -22.837411 23.524223 -42.944466
v -16.418413 23.483398 -42.944466
v -15.397598 22.913423 -42.944466
v -30.277223 22.805585 -42.942049
v -29.256408 23.340511 -42.893037
v -22.837411 23.524223 -42.893037
v -16.418413 23.483398 -42.893037
v -15.397598 22.913423 -42.939027
v -15.385307 24.200420 -42.972688
v -15.385307 24.200420 -42.944466
v -15.385307 24.200420 -42.916244
v -15.492562 27.462217 -42.972688
v -15.492562 27.462217 -42.944466
v -15.492562 27.462217 -42.916244
v -15.320955 30.724013 -42.972688
v -15.320955 30.724013 -42.944466
v -15.320955 30.724013 -42.916244
v -29.929009 24.200420 -42.957009
v -29.929009 24.200420 -42.944466
v -29.929009 24.200420 -42.931922
v -29.816100 27.462217 -42.957009
v -29.816100 27.462217 -42.944466
v -29.816100 27.462217 -42.931922
v -30.065595 30.724013 -42.957009
v -30.065595 30.724013 -42.944466
v -30.065595 30.724013 -42.931922
vt 0.375000 0.000000
vt 0.437500 0.000000
vt 0.500000 0.000000
vt 0.562500 0.000000
vt 0.625000 0.000000
vt 0.375000 0.062500
vt 0.437500 0.062500
vt 0.500000 0.062500
vt 0.562500 0.062500
vt 0.625000 0.062500
vt 0.375000 0.125000
vt 0.437500 0.125000
vt 0.500000 0.125000
vt 0.562500 0.125000
vt 0.625000 0.125000
vt 0.375000 0.187500
vt 0.437500 0.187500
vt 0.500000 0.187500
vt 0.562500 0.187500
vt 0.625000 0.187500
vt 0.375000 0.250000
vt 0.437500 0.250000
vt 0.500000 0.250000
vt 0.562500 0.250000
vt 0.625000 0.250000
vt 0.375000 0.312500
vt 0.437500 0.312500
vt 0.500000 0.312500
vt 0.562500 0.312500
vt 0.625000 0.312500
vt 0.375000 0.375000
vt 0.437500 0.375000
vt 0.500000 0.375000
vt 0.562500 0.375000
vt 0.625000 0.375000
vt 0.375000 0.437500
vt 0.437500 0.437500
vt 0.500000 0.437500
vt 0.562500 0.437500
vt 0.625000 0.437500
vt 0.375000 0.500000
vt 0.437500 0.500000
vt 0.500000 0.500000
vt 0.562500 0.500000
vt 0.625000 0.500000
vt 0.375000 0.562500
vt 0.437500 0.562500
vt 0.500000 0.562500
vt 0.562500 0.562500
vt 0.625000 0.562500
vt 0.375000 0.625000
vt 0.437500 0.625000
vt 0.500000 0.625000
vt 0.562500 0.625000
vt 0.625000 0.625000
vt 0.375000 0.687500
vt 0.437500 0.687500
vt 0.500000 0.687500
vt 0.562500 0.687500
vt 0.625000 0.687500
vt 0.375000 0.750000
vt 0.437500 0.750000
vt 0.500000 0.750000
vt 0.562500 0.750000
vt 0.625000 0.750000
vt 0.375000 0.812500
vt 0.437500 0.812500
vt 0.500000 0.812500
vt 0.562500 0.812500
vt 0.625000 0.812500
vt 0.375000 0.875000
vt 0.437500 0.875000
vt 0.500000 0.875000
vt 0.562500 0.875000
vt 0.625000 0.875000
vt 0.375000 0.937500
vt 0.437500 0.937500
vt 0.500000 0.937500
vt 0.562500 0.937500
vt 0.625000 0.937500
vt 0.375000 1.000000
vt 0.437500 1.000000
vt 0.500000 1.000000
vt 0.562500 1.000000
vt 0.625000 1.000000
vt 0.875000 0.000000
vt 0.812500 0.000000
vt 0.750000 0.000000
vt 0.687500 0.000000
vt 0.875000 0.062500
vt 0.812500 0.062500
vt 0.750000 0.062500
vt 0.687500 0.062500
vt 0.875000 0.125000
vt 0.812500 0.125000
vt 0.750000 0.125000
vt 0.687500 0.125000
vt 0.875000 0.187500
vt 0.812500 0.187500
vt 0.750000 0.187500
vt 0.687500 0.187500
vt 0.875000 0.250000
vt 0.812500 0.250000
vt 0.750000 0.250000
vt 0.687500 0.250000
vt 0.125000 0.000000
vt 0.187500 0.000000
vt 0.250000 0.000000
vt 0.312500 0.000000
vt 0.125000 0.062500
vt 0.187500 0.062500
vt 0.250000 0.062500
vt 0.312500 0.062500
vt 0.125000 0.125000
vt 0.187500 0.125000
vt 0.250000 0.125000
vt 0.312500 0.125000
vt 0.125000 0.187500
vt 0.187500 0.187500
vt 0.250000 0.187500
vt 0.312500 0.187500
vt 0.125000 0.250000
vt 0.187500 0.250000
vt 0.250000 0.250000
vt 0.312500 0.250000
vn -0.101196 0.010819 0.994808
vn -0.041221 -0.408393 0.911875
vn -0.546318 -0.038001 0.836716
vn -0.068942 -0.107532 0.991808
vn 0.000704 -0.556943 0.830550
vn 0.000000 -0.116415 0.993201
vn 0.045577 -0.479325 0.876453
vn 0.064567 -0.110619 0.991763
vn 0.069748 -0.035962 0.996916
vn 0.385018 -0.045678 0.921778
vn -0.671490 -0.003025 0.741007
vn -0.077056 0.000000 0.997027
vn 0.000000 0.000000 1.000000
vn 0.068999 0.000000 0.997617
vn 0.468532 -0.001152 0.883446
vn -0.070502 0.123356 0.989855
vn -0.487709 0.035810 0.872271
vn 0.001710 0.131373 0.991332
vn 0.064861 0.129908 0.989402
vn 0.368577 0.046789 0.928419
vn -0.043837 0.569721 0.820668
vn -0.037238 0.016750 0.999166
vn 0.008671 0.609968 0.792379
vn 0.039157 0.670817 0.740588
vn 0.014587 0.057915 0.998215
vn 0.216638 0.976252 0.000000
vn 0.216638 0.976252 0.000000
vn 0.030422 0.999537 0.000000
vn 0.029452 0.999566 0.000000
vn 0.014309 0.999898 0.000000
vn 0.014309 0.999898 0.000000
vn -0.029965 0.999551 0.000000
vn -0.031639 0.999499 0.000000
vn -0.380144 0.924927 0.000000
vn -0.380144 0.924927 0.000000
vn 0.216639 0.976252 0.000000
vn 0.030411 0.999537 0.000000
vn 0.014309 0.999898 0.000000
vn -0.031594 0.999501 0.000000
vn -0.380145 0.924927 0.000000
vn 0.216638 0.976252 0.000000
vn 0.030422 0.999537 0.000000
vn 0.014309 0.999898 0.000000
vn -0.031639 0.999499 0.000000
vn -0.380144 0.924927 0.000000
vn 0.216638 0.976252 0.000000
vn 0.029452 0.999566 0.000000
vn 0.014309 0.999898 0.000000
vn -0.029965 0.999551 0.000000
vn -0.380143 0.924928 0.000000
vn -0.037238 0.016750 -0.999166
vn -0.043837 0.569721 -0.820668
vn -0.487709 0.035810 -0.872271
vn -0.091567 0.159851 -0.982885
vn 0.000729 0.696677 -0.717384
vn 0.000000 0.201620 -0.979464
vn 0.054989 0.680759 -0.730440
vn 0.088649 0.166338 -0.982076
vn 0.014587 0.057915 -0.998215
vn 0.368577 0.046789 -0.928419
vn -0.739512 -0.002745 -0.673138
vn -0.115095 0.000000 -0.993354
vn 0.000000 0.000000 -1.000000
vn 0.105979 0.000000 -0.994368
vn 0.541821 -0.001094 -0.840493
vn -0.089580 -0.142970 -0.985665
vn -0.546318 -0.038001 -0.836716
vn 0.000000 -0.187770 -0.982213
vn 0.084841 -0.145843 -0.985663
vn 0.385018 -0.045678 -0.921778
vn -0.041221 -0.408393 -0.911875
vn -0.101196 0.010819 -0.994808
vn 0.000643 -0.649876 -0.760040
vn 0.045577 -0.479325 -0.876453
vn 0.069748 -0.035962 -0.996916
vn 0.464150 -0.885757 0.000000
vn 0.464149 -0.885757 0.000000
vn 0.096093 -0.995372 0.000000
vn 0.091576 -0.995798 0.000000
vn 0.011129 -0.999938 0.000000
vn 0.011129 -0.999938 0.000000
vn -0.077101 -0.997023 0.000000
vn -0.081700 -0.996657 0.000000
vn -0.487510 -0.873118 0.000000
vn -0.487510 -0.873117 0.000000
vn 0.464153 -0.885755 0.000000
vn 0.096039 -0.995377 0.000000
vn 0.011129 -0.999938 0.000000
vn -0.081575 -0.996667 0.000000
vn -0.487508 -0.873118 0.000000
vn 0.464151 -0.885756 0.000000
vn 0.096093 -0.995372 0.000000
vn 0.011129 -0.999938 0.000000
vn -0.081700 -0.996657 0.000000
vn -0.487509 -0.873118 0.000000
vn 0.464151 -0.885756 0.000000
vn 0.091576 -0.995798 0.000000
vn 0.011129 -0.999938 0.000000
vn -0.077101 -0.997023 0.000000
vn -0.487509 -0.873118 0.000000
vn 0.999954 -0.009551 0.000000
vn 0.999954 -0.009553 0.000000
vn 0.999782 0.020885 0.000000
vn 0.999776 0.021145 0.000000
vn 0.999954 -0.009549 0.000000
vn 0.999782 0.020885 0.000000
vn 0.999954 -0.009551 0.000000
vn 0.999782 0.020898 0.000000
vn 0.999954 -0.009552 0.000000
vn 0.999776 0.021145 0.000000
vn 0.999951 -0.009864 0.000000
vn 0.999951 -0.009864 0.000000
vn 0.999951 -0.009864 0.000000
vn 0.999951 -0.009864 0.000000
vn 0.999951 -0.009864 0.000000
vn 0.999741 -0.022770 0.000000
vn 0.999714 -0.023929 0.000000
vn 0.999740 -0.022795 0.000000
vn 0.999741 -0.022770 0.000000
vn 0.999714 -0.023929 0.000000
vn 0.996488 0.083737 0.000000
vn 0.996488 0.083736 0.000000
vn 0.996488 0.083739 0.000000
vn 0.996488 0.083735 0.000000
vn 0.996488 0.083732 0.000000
vn -0.970223 0.242212 0.000000
vn -0.970223 0.242212 0.000000
vn -0.995193 0.097929 0.000000
vn -0.995135 0.098516 0.000000
vn -0.970223 0.242212 0.000000
vn -0.995135 0.098516 0.000000
vn -0.970224 0.242210 0.000000
vn -0.995135 0.098516 0.000000
vn -0.970224 0.242208 0.000000
vn -0.995188 0.097984 0.000000
vn -0.999781 -0.020933 0.000000
vn -0.999781 -0.020932 0.000000
vn -0.999781 -0.020932 0.000000
vn -0.999781 -0.020932 0.000000
vn -0.999781 -0.020932 0.000000
vn -0.993990 -0.109469 0.000000
vn -0.993927 -0.110042 0.000000
vn -0.993928 -0.110030 0.000000
vn -0.993927 -0.110042 0.000000
vn -0.993990 -0.109469 0.000000
vn -0.973603 -0.228248 0.000000
vn -0.973603 -0.228250 0.000000
vn -0.973603 -0.228246 0.000000
vn -0.973603 -0.228248 0.000000
vn -0.973603 -0.228250 0.000000
s 1
g pCube83 Cnady_Bars
usemtl initialShadingGroup
f 1/1/1 2/2/2 6/6/3
f 6/6/3 2/2/2 7/7/4
f 2/2/2 3/3/5 7/7/4
f 7/7/4 3/3/5 8/8/6
f 4/4/7 9/9/8 3/3/5
f 3/3/5 9/9/8 8/8/6
f 5/5/9 10/10/10 4/4/7
f 4/4/7 10/10/10 9/9/8
f 6/6/3 7/7/4 11/11/11
f 11/11/11 7/7/4 12/12/12
f 7/7/4 8/8/6 12/12/12
f 12/12/12 8/8/6 13/13/13
f 8/8/6 9/9/8 13/13/13
f 13/13/13 9/9/8 14/14/14
f 10/10/10 15/15/15 9/9/8
f 9/9/8 15/15/15 14/14/14
f 12/12/12 17/17/16 11/11/11
f 11/11/11 17/17/16 16/16/17
f 12/12/12 13/13/13 17/17/16
f 17/17/16 13/13/13 18/18/18
f 13/13/13 14/14/14 18/18/18
f 18/18/18 14/14/14 19/19/19
f 14/14/14 15/15/15 19/19/19
f 19/19/19 15/15/15 20/20/20
f 17/17/16 22/22/21 16/16/17
f 16/16/17 22/22/21 21/21/22
f 17/17/16 18/18/18 22/22/21
f 22/22/21 18/18/18 23/23/23
f 19/19/19 24/24/24 18/18/18
f 18/18/18 24/24/24 23/23/23
f 19/19/19 20/20/20 24/24/24
f 24/24/24 20/20/20 25/25/25
s 3
f 26/26/26 21/21/27 27/27/28
f 21/21/27 22/22/29 27/27/28
f 22/22/29 23/23/30 27/27/28
f 27/27/28 23/23/30 28/28/31
f 23/23/30 24/24/32 28/28/31
f 28/28/31 24/24/32 29/29/33
f 30/30/34 29/29/33 25/25/35
f 24/24/32 25/25/35 29/29/33
f 31/31/36 26/26/26 32/32/37
f 26/26/26 27/27/28 32/32/37
f 27/27/28 28/28/31 32/32/37
f 32/32/37 28/28/31 33/33/38
f 28/28/31 29/29/33 33/33/38
f 33/33/38 29/29/33 34/34/39
f 35/35/40 34/34/39 30/30/34
f 29/29/33 30/30/34 34/34/39
f 31/31/36 32/32/37 36/36/41
f 32/32/37 37/37/42 36/36/41
f 32/32/37 33/33/38 37/37/42
f 37/37/42 33/33/38 38/38/43
f 33/33/38 34/34/39 38/38/43
f 38/38/43 34/34/39 39/39/44
f 35/35/40 40/40/45 34/34/39
f 34/34/39 40/40/45 39/39/44
f 36/36/41 37/37/42 41/41/46
f 37/37/42 42/42/47 41/41/46
f 37/37/42 38/38/43 42/42/47
f 42/42/47 38/38/43 43/43/48
f 38/38/43 39/39/44 43/43/48
f 43/43/48 39/39/44 44/44/49
f 40/40/45 45/45/50 39/39/44
f 39/39/44 45/45/50 44/44/49
s 6
f 41/41/51 42/42/52 46/46/53
f 46/46/53 42/42/52 47/47/54
f 42/42/52 43/43/55 47/47/54
f 47/47/54 43/43/55 48/48/56
f 44/44/57 49/49/58 43/43/55
f 43/43/55 49/49/58 48/48/56
f 45/45/59 50/50/60 44/44/57
f 44/44/57 50/50/60 49/49/58
f 46/46/53 47/47/54 51/51/61
f 51/51/61 47/47/54 52/52/62
f 47/47/54 48/48/56 52/52/62
f 52/52/62 48/48/56 53/53/63
f 49/49/58 54/54/64 48/48/56
f 48/48/56 54/54/64 53/53/63
f 50/50/60 55/55/65 49/49/58
f 49/49/58 55/55/65 54/54/64
f 52/52/62 57/57/66 51/51/61
f 51/51/61 57/57/66 56/56/67
f 53/53/63 58/58/68 52/52/62
f 52/52/62 58/58/68 57/57/66
f 53/53/63 54/54/64 58/58/68
f 58/58/68 54/54/64 59/59/69
f 54/54/64 55/55/65 59/59/69
f 59/59/69 55/55/65 60/60/70
f 57/57/66 62/62/71 56/56/67
f 56/56/67 62/62/71 61/61/72
f 58/58/68 63/63/73 57/57/66
f 57/57/66 63/63/73 62/62/71
f 58/58/68 59/59/69 63/63/73
f 63/63/73 59/59/69 64/64/74
f 59/59/69 60/60/70 64/64/74
f 64/64/74 60/60/70 65/65/75
s 8
f 66/66/76 61/61/77 67/67/78
f 61/61/77 62/62/79 67/67/78
f 62/62/79 63/63/80 67/67/78
f 67/67/78 63/63/80 68/68/81
f 63/63/80 64/64/82 68/68/81
f 68/68/81 64/64/82 69/69/83
f 70/70/84 69/69/83 65/65/85
f 64/64/82 65/65/85 69/69/83
f 71/71/86 66/66/76 72/72/87
f 66/66/76 67/67/78 72/72/87
f 67/67/78 68/68/81 72/72/87
f 72/72/87 68/68/81 73/73/88
f 68/68/81 69/69/83 73/73/88
f 73/73/88 69/69/83 74/74/89
f 75/75/90 74/74/89 70/70/84
f 69/69/83 70/70/84 74/74/89
f 71/71/86 72/72/87 76/76/91
f 72/72/87 77/77/92 76/76/91
f 72/72/87 73/73/88 77/77/92
f 77/77/92 73/73/88 78/78/93
f 73/73/88 74/74/89 78/78/93
f 78/78/93 74/74/89 79/79/94
f 75/75/90 80/80/95 74/74/89
f 74/74/89 80/80/95 79/79/94
f 76/76/91 77/77/92 1/81/96
f 77/77/92 2/82/97 1/81/96
f 77/77/92 78/78/93 2/82/97
f 2/82/97 78/78/93 3/83/98
f 78/78/93 79/79/94 3/83/98
f 3/83/98 79/79/94 4/84/99
f 80/80/95 5/85/100 79/79/94
f 79/79/94 5/85/100 4/84/99
s 11
f 70/87/101 65/86/102 81/91/103
f 81/91/103 65/86/102 60/90/104
f 75/88/105 70/87/101 82/92/106
f 82/92/106 70/87/101 81/91/103
f 80/89/107 75/88/105 83/93/108
f 83/93/108 75/88/105 82/92/106
f 80/89/107 83/93/108 5/5/109
f 5/5/109 83/93/108 10/10/110
f 81/91/103 60/90/104 84/95/111
f 84/95/111 60/90/104 55/94/112
f 82/92/106 81/91/103 85/96/113
f 85/96/113 81/91/103 84/95/111
f 83/93/108 82/92/106 86/97/114
f 86/97/114 82/92/106 85/96/113
f 10/10/110 83/93/108 15/15/115
f 15/15/115 83/93/108 86/97/114
f 84/95/111 55/94/112 87/99/116
f 87/99/116 55/94/112 50/98/117
f 85/96/113 84/95/111 88/100/118
f 88/100/118 84/95/111 87/99/116
f 86/97/114 85/96/113 89/101/119
f 89/101/119 85/96/113 88/100/118
f 15/15/115 86/97/114 20/20/120
f 20/20/120 86/97/114 89/101/119
f 40/103/121 87/99/116 45/102/122
f 87/99/116 50/98/117 45/102/122
f 35/104/123 88/100/118 40/103/121
f 88/100/118 87/99/116 40/103/121
f 35/104/123 30/105/124 88/100/118
f 89/101/119 88/100/118 30/105/124
f 30/105/124 25/25/125 89/101/119
f 20/20/120 89/101/119 25/25/125
s 13
f 61/106/126 66/107/127 56/110/128
f 56/110/128 66/107/127 90/111/129
f 66/107/127 71/108/130 90/111/129
f 90/111/129 71/108/130 91/112/131
f 71/108/130 76/109/132 91/112/131
f 91/112/131 76/109/132 92/113/133
f 76/109/132 1/1/134 92/113/133
f 92/113/133 1/1/134 6/6/135
f 56/110/128 90/111/129 51/114/136
f 51/114/136 90/111/129 93/115/137
f 90/111/129 91/112/131 93/115/137
f 93/115/137 91/112/131 94/116/138
f 91/112/131 92/113/133 94/116/138
f 94/116/138 92/113/133 95/117/139
f 92/113/133 6/6/135 95/117/139
f 95/117/139 6/6/135 11/11/140
f 51/114/136 93/115/137 46/118/141
f 46/118/141 93/115/137 96/119/142
f 93/115/137 94/116/138 96/119/142
f 96/119/142 94/116/138 97/120/143
f 94/116/138 95/117/139 97/120/143
f 97/120/143 95/117/139 98/121/144
f 95/117/139 11/11/140 98/121/144
f 98/121/144 11/11/140 16/16/145
f 36/123/146 41/122/147 96/119/142
f 46/118/141 96/119/142 41/122/147
f 31/124/148 36/123/146 97/120/143
f 96/119/142 97/120/143 36/123/146
f 31/124/148 97/120/143 26/125/149
f 97/120/143 98/121/144 26/125/149
f 26/125/149 98/121/144 21/21/150
f 98/121/144 16/16/145 21/21/150
